<svg id="Layer_1" data-name="Layer 1" xmlns="http://www.w3.org/2000/svg" viewBox="0 0 203.03 277.51"><defs><style>.cls-1,.cls-2{fill:#212b40;}.cls-2{font-size:65.18px;font-family:Poppins-Bold, Poppins;font-weight:700;}</style></defs><path class="cls-1" d="M35.91,146.35c3.33-7.11,6.1-14.46,9.1-21.7,3.69-8.91,7.55-17.74,11.31-26.61a3.38,3.38,0,0,0,.11-1c.83-3,2.62-5.67,3.71-8.63,2-5.58,4.51-11,6.82-16.5,2.12-5,4.29-10.06,6.4-15.11,2.26-5.44,4.45-10.9,6.69-16.34,1.64-4,3.32-7.93,5-11.89q3.35-8,6.67-16.06c1.53-3.67,3-7.35,4.58-11A2.43,2.43,0,0,1,98.92,0c3.34.08,6.7.22,10,0a3.22,3.22,0,0,1,3.64,2.26c1.21,2.9,2.32,5.83,3.53,8.73,2.11,5,4.3,10.06,6.41,15.11,1.79,4.27,3.48,8.58,5.29,12.84,1.42,3.34,2.94,6.63,4.41,9.93,1.64,4.07,3.26,8.15,4.93,12.2,2.23,5.43,4.46,10.85,6.74,16.26,2.15,5.09,4.38,10.15,6.56,15.24,1.63,3.8,3.23,7.62,4.84,11.44,1.93,4.56,4,9.07,5.74,13.69,1.87,4.86,4,9.59,6.08,14.36,2.87,6.61,5.56,13.3,8.35,20a2,2,0,0,1,.09,2L154.84,133.8c-4-4-7.81-8.25-12-12.12a22.86,22.86,0,0,1-5.52-8.74c-2.3-5.84-4.9-11.54-7.23-17.35-3.49-8.7-7.37-17.23-10.69-26-2.45-6.46-5.53-12.69-8.26-19.06-1.67-3.89-3.23-7.82-4.84-11.74a6.07,6.07,0,0,0-.71-1.58c-.5-.63-1-1.57-1.87-1.51s-.81,1.13-1.09,1.78C99.84,44,96.9,50.54,94.38,57.2c-.65,1.73-2,3.32-1.84,5.35L85.31,79.73Q81.88,87.88,78.46,96c-2.58,6.15-5.23,12.27-7.7,18.46a23.09,23.09,0,0,1-5.41,8.22c-10,9.81-19.86,19.8-29.77,29.72-.58.58-1.19,1.11-2.29,2.13C33.38,151,35.41,148.91,35.91,146.35Z" transform="translate(0 0.02)"/><text class="cls-2" transform="translate(0 238.01)">Alfred</text><polygon class="cls-1" points="105.57 95.47 17.2 183.56 104.06 126.88 191.88 183.56 105.57 95.47"/></svg>