<svg id="Layer_1" data-name="Layer 1" xmlns="http://www.w3.org/2000/svg" viewBox="0 0 210.59 271.39"><defs><style>.cls-1{fill:#212b40;}.cls-2{fill:#f5f8fc;}</style></defs><path class="cls-1" d="M142.41,1c9.6-.1,19.24.28,28.79-.44,8.71-.66,12.44,3.23,12.48,11.28.06,14.62.29,29.25-.42,43.84-.54,11.1-7.11,19.25-15.64,26-6.48,5.09-11.53,10.42-6.86,19.92,1.64,3.34,1.93,9.51-.09,12.14-13.22,17.17-.49,32.24,3.26,47.82,3.21,13.31,8.12,26.2,11.76,39.42,2.42,8.77,5.57,15.32,15.64,18.54,14.07,4.5,21.25,17.81,18.77,30.08s-15.41,21.84-29.67,21.8q-75.17-.21-150.34-.56C15.77,270.8,3,261.21.48,249c-2.55-12.67,5.09-26,20-30.49,9.39-2.83,12-9.11,14.4-16.68,6.42-20.2,12.9-40.37,19.17-60.62C56.6,132.94,59.88,125,52,116.89c-3.65-3.72-3.22-11-1-15.66,4.1-8.81.58-14.3-5.8-19.14C32.42,72.42,27.37,59.7,28.33,43.9c.63-10.41.17-20.87.29-31.31C28.72,4.33,31.52-.72,41.26.14,50.8,1,60.45.63,70.05.8c5.51,6.14,3.09,14,4.5,21,.78,3.9-.73,8.35,3.58,12.14,8.74-9.69,1.46-23.6,9-33.17l38.32.14c5.12,5.87,2.76,13.35,4.21,20,.94,4.32-.1,9.14,4.17,13.18,4.52-2.64,3.21-7.1,4-10.82C139.22,15.84,136.63,7.54,142.41,1Z" transform="translate(0 -0.05)"/><path class="cls-2" d="M86.54.82c-2.16,9.46-1.22,19.08-1.48,28.64C84.91,35,83.53,40,77,39.81s-5.94-5.68-6.14-10.25Q70.21,15.22,69.51.9c6.78,1.81,4.85,9.3,8.13,14.07C82.38,10.57,79.76,2.68,86.54.82Z" transform="translate(0 -0.05)"/><path class="cls-2" d="M141.9.9c-.45,10-.94,19.94-1.34,29.91-.18,4.36-.46,8.93-6.14,9s-7.77-4-8-9.14c-.46-10,.71-20-1.54-29.89,6.78,1.86,4.17,9.75,8.42,13.71C137.65,10.59,134.82,2.51,141.9.9Z" transform="translate(0 -0.05)"/><path class="cls-2" d="M104.43,216.67c-15.4,0-30.81-.21-46.2.09-8.2.16-11.32-1.82-8.39-10.8,7.58-23.22,14.33-46.7,21.54-70,1.82-5.91,6.16-8.37,12.38-8.31,14.56.16,29.14.2,43.7,0,6.35-.1,10.46,2.63,12.28,8.43,7.32,23.31,14.15,46.78,21.81,70,3,9-.29,10.9-8.42,10.76C136.9,216.47,120.66,216.68,104.43,216.67Z" transform="translate(0 -0.05)"/><path class="cls-2" d="M104.59,87.75c-22.93,5.81-39.33-5-53.85-21C44.62,60.09,39.8,26,44.32,19A6.9,6.9,0,0,1,50.76,16c3.75.13,5,2.6,5.12,5.8.2,5.83.51,11.69.18,17.5-.67,11.93,5,16.94,16.54,16a8.83,8.83,0,0,1,1.26,0c25.06.24,25.51-.21,25.92-25.73,0-2.08,0-4.17.12-6.25.13-4.12,1.08-7.61,6.29-7.31,4.47.25,5.19,3.48,5.31,7,.17,5.42.37,10.84.35,16.26,0,11.24,4.62,17.38,16.67,16a72.36,72.36,0,0,1,7.51,0c17.51-.07,19.17-1.75,19.26-19.5,0-4.17,0-8.34.12-12.51.11-3.42.4-7,5-7.27,4.42-.29,6.72,1.82,7.61,6.35,6.93,35-14.77,68.66-52.14,65.45C112.12,87.44,108.35,87.75,104.59,87.75Z" transform="translate(0 -0.05)"/><path class="cls-2" d="M104.88,255.94c-23.8,0-47.6-.16-71.39.08-8.55.08-16-2.27-16.13-11.52-.14-9.82,7.67-12.8,16.52-12.8h144c8.41,0,15.87,3.17,16.15,12,.32,10-7.5,12.45-16.55,12.36C153.28,255.75,129.1,255.94,104.88,255.94Z" transform="translate(0 -0.05)"/><path class="cls-2" d="M104.46,112.9c-10,0-19.95.14-29.91-.06-4-.09-9.23.14-8.88-5.94.26-4.54,4.16-5.76,8.25-5.76h63.57c4.09,0,8,1.22,8.25,5.76.35,6.08-4.85,5.86-8.87,5.94C126.07,113,115.28,112.9,104.46,112.9Z" transform="translate(0 -0.05)"/></svg>