<svg id="Layer_1" data-name="Layer 1" xmlns="http://www.w3.org/2000/svg" viewBox="0 0 210.58 270.9"><defs><style>.cls-1{fill:#fff;}.cls-2{fill:#212b40;}</style></defs><path class="cls-1" d="M302.87,389.09c9.6-.13,19.24.21,28.79-.55,8.71-.69,12.46,3.19,12.52,11.24.12,14.61.41,29.25-.25,43.83-.5,11.11-7,19.28-15.54,26-6.47,5.12-11.49,10.47-6.79,19.95,1.66,3.34,2,9.51,0,12.14-13.16,17.22-.37,32.24,3.44,47.81,3.26,13.3,8.22,26.17,11.91,39.37,2.45,8.76,5.63,15.3,15.71,18.49,14.08,4.44,21.31,17.73,18.87,30s-15.32,21.9-29.58,21.92q-75.17.08-150.34,0c-14.32,0-27.17-9.56-29.69-21.79-2.61-12.66,5-26,19.89-30.57,9.38-2.86,11.95-9.14,14.33-16.73,6.35-20.22,12.76-40.42,19-60.69,2.52-8.24,5.77-16.25-2.17-24.28-3.66-3.7-3.26-11-1.11-15.66,4.07-8.82.53-14.3-5.87-19.12-12.79-9.61-17.89-22.32-17-38.12.6-10.41.1-20.88.18-31.32.07-8.25,2.85-13.32,12.6-12.49,9.54.8,19.18.42,28.79.55,5.53,6.12,3.14,14,4.57,21,.8,3.89-.69,8.34,3.63,12.13,8.7-9.73,1.37-23.62,8.83-33.22h38.33c5.14,5.85,2.81,13.35,4.28,20,.95,4.32-.06,9.14,4.22,13.16,4.51-2.65,3.18-7.11,3.92-10.83C299.74,403.92,297.12,395.63,302.87,389.09Z" transform="translate(-161.37 -388.45)"/><path class="cls-2" d="M247.51,389c-2.16,9.47-1.22,19.09-1.48,28.65-.15,5.48-1.53,10.5-8.06,10.35s-5.95-5.69-6.15-10.26q-.65-14.33-1.34-28.66c6.78,1.81,4.85,9.31,8.13,14.08C243.35,398.77,240.73,390.88,247.51,389Z" transform="translate(-161.37 -388.45)"/><path class="cls-2" d="M302.87,389.09c-.45,10-.94,19.94-1.34,29.92-.18,4.36-.45,8.93-6.14,9s-7.77-4-8-9.14c-.46-10,.72-20-1.54-29.9,6.78,1.86,4.17,9.76,8.42,13.71C298.62,398.79,295.79,390.71,302.87,389.09Z" transform="translate(-161.37 -388.45)"/><path class="cls-2" d="M265.4,604.87c-15.4,0-30.81-.21-46.2.09-8.2.16-11.32-1.83-8.39-10.8,7.58-23.22,14.33-46.71,21.54-70,1.82-5.91,6.17-8.38,12.38-8.31,14.57.16,29.14.2,43.7,0,6.35-.1,10.46,2.63,12.29,8.43,7.31,23.31,14.14,46.78,21.8,70,3,9-.29,10.91-8.42,10.77C297.87,604.67,281.63,604.87,265.4,604.87Z" transform="translate(-161.37 -388.45)"/><path class="cls-2" d="M265.56,475.91c-22.93,5.81-39.33-5-53.85-21-6.12-6.71-10.94-40.83-6.42-47.78a6.87,6.87,0,0,1,6.44-3.07c3.75.13,5,2.6,5.12,5.79.2,5.84.51,11.7.18,17.51-.67,11.93,5,16.94,16.55,16,.41,0,.83,0,1.25,0,25.06.25,25.51-.21,25.92-25.72,0-2.08.05-4.17.12-6.25.13-4.12,1.09-7.61,6.29-7.32,4.47.25,5.19,3.49,5.31,7,.17,5.42.37,10.84.35,16.26-.05,11.24,4.62,17.37,16.67,16a69.65,69.65,0,0,1,7.51,0c17.51-.08,19.17-1.76,19.26-19.5,0-4.17,0-8.34.12-12.51.11-3.42.4-7,5-7.27,4.42-.29,6.72,1.82,7.61,6.35,6.93,35-14.77,68.66-52.14,65.44C273.1,475.63,269.32,475.91,265.56,475.91Z" transform="translate(-161.37 -388.45)"/><path class="cls-2" d="M265.85,644.14c-23.8,0-47.6-.16-71.39.07-8.55.09-16-2.26-16.13-11.51-.14-9.82,7.67-12.8,16.52-12.8h144c8.41,0,15.87,3.17,16.15,12,.32,10-7.49,12.45-16.55,12.36C314.29,644,290.07,644.14,265.85,644.14Z" transform="translate(-161.37 -388.45)"/><path class="cls-2" d="M265.43,501.1c-10,0-20,.14-29.91-.07-4-.08-9.22.14-8.88-5.93.26-4.54,4.16-5.76,8.25-5.76h63.57c4.09,0,8,1.22,8.25,5.76.35,6.07-4.85,5.86-8.87,5.93C287,501.23,276.23,501.1,265.43,501.1Z" transform="translate(-161.37 -388.45)"/></svg>