<svg id="Layer_1" data-name="Layer 1" xmlns="http://www.w3.org/2000/svg" viewBox="0 0 191.57 223.62"><defs><style>.cls-1{fill:#fff;}.cls-2{fill:#1f2c3e;}</style></defs><path class="cls-1" d="M385.68,410c1,28.18-2.28,55.91-12.35,82.27-13.18,34.48-40.35,54.32-73,68.9-12.49,5.57-21.29-.52-30.51-4.8-44.46-20.65-67.52-56.06-73.14-104.78-2.54-22-2.14-43.87-2.35-65.82-.1-10.68,2.72-13.18,13.39-13.56,27.78-1,53.06-8.7,73.78-28.14,5.73-5.37,10.7-6,16.76-.22,20.89,19.76,46.49,27.51,74.64,28.39,9.89.31,12.6,3.08,12.79,13.21C385.81,393.63,385.68,401.82,385.68,410Z" transform="translate(-194.29 -339.79)"/><path class="cls-2" d="M369.2,416.75c-.41,28.31-1.33,56.42-16.19,82.07C339.58,522,319.22,536.1,295.23,546a14.86,14.86,0,0,1-11.14-.15c-42.79-17.36-66.45-47.48-71.7-92.92-2.17-18.82-1.93-37.68-1.79-56.57,0-6.06,1.69-8.83,8.45-9.42,23.5-2.06,45.3-9.44,64.19-24,4.77-3.66,8.27-4,13.18-.21,19.11,14.8,41.2,22.13,65,24.27,5.57.49,7.93,2.5,7.78,8C369.05,402.26,369.2,409.51,369.2,416.75Z" transform="translate(-194.29 -339.79)"/><path class="cls-1" d="M278.78,481.17c-3.3-.44-5.72-2.55-7.95-4.68-5.9-5.62-11.61-11.44-17.37-17.2-4.11-4.1-5.42-9.14-1.16-13.26s8.43-1.41,12.28,2.12c14.7,13.47,14.76,13.4,29.48-.86,7.43-7.2,14.8-14.45,22.3-21.57,3.36-3.19,7.18-5.82,11.31-1.25,3.45,3.83,3.25,8.19-.33,11.78-14.16,14.21-28.48,28.27-42.75,42.36C283,480.17,281.25,481.52,278.78,481.17Z" transform="translate(-194.29 -339.79)"/></svg>