<svg id="Layer_1" data-name="Layer 1" xmlns="http://www.w3.org/2000/svg" viewBox="0 0 191.52 223.63"><defs><style>.cls-1{fill:#1f2c3e;}.cls-2{fill:#f5f8fc;}</style></defs><path class="cls-1" d="M191.39,70.21c1,28.18-2.28,55.91-12.35,82.27-13.18,34.48-40.35,54.32-73,68.9-12.49,5.57-21.29-.52-30.51-4.8C31.07,195.93,8,160.52,2.39,111.8-.15,89.8.25,67.93,0,46-.06,35.3,2.76,32.8,13.43,32.42c27.78-1,53.06-8.7,73.78-28.14,5.73-5.37,10.7-6,16.76-.22,20.89,19.76,46.49,27.51,74.64,28.39,9.89.31,12.6,3.08,12.79,13.21C191.52,53.84,191.39,62,191.39,70.21Z" transform="translate(-0.04 0.02)"/><path class="cls-2" d="M174.91,77c-.41,28.31-1.33,56.42-16.19,82.07-13.43,23.18-33.79,37.28-57.78,47.18a14.86,14.86,0,0,1-11.14-.15C47,188.7,23.35,158.58,18.1,113.14c-2.17-18.82-1.93-37.68-1.79-56.57,0-6.06,1.69-8.83,8.45-9.42,23.5-2.06,45.3-9.44,64.19-24,4.77-3.66,8.27-4,13.18-.21,19.11,14.8,41.2,22.13,65,24.27,5.57.49,7.93,2.5,7.78,8C174.76,62.47,174.91,69.72,174.91,77Z" transform="translate(-0.04 0.02)"/><path class="cls-1" d="M84.49,141.38c-3.3-.44-5.72-2.55-7.95-4.68-5.9-5.62-11.61-11.44-17.37-17.2-4.11-4.1-5.42-9.14-1.16-13.26s8.43-1.41,12.28,2.12c14.7,13.47,14.76,13.4,29.48-.86,7.43-7.2,14.8-14.45,22.3-21.57,3.36-3.19,7.18-5.82,11.31-1.25,3.45,3.83,3.25,8.19-.33,11.78-14.16,14.21-28.48,28.27-42.75,42.36C88.71,140.38,87,141.73,84.49,141.38Z" transform="translate(-0.04 0.02)"/></svg>