<svg id="Layer_1" data-name="Layer 1" xmlns="http://www.w3.org/2000/svg" viewBox="0 0 328.28 319.98"><defs><style>.cls-1{fill:#212b40;}.cls-2{fill:#f5f8fc;}</style></defs><path class="cls-1" d="M145,54c-14.41-12.24-16.17-31.17-4-43.58,13.54-13.87,33.33-13.87,46.88,0,12.12,12.41,10.37,31.35-4,43.59C166.88,65.36,162,65.36,145,54Z" transform="translate(-0.01 0)"/><path class="cls-1" d="M225.62,77.5c5.26-4.51,10.28-3.5,15.54.24,25.06,17.84,40.4,42.11,47.74,71.53,1.91,7.62,2.25,15.62,3.94,23.3,1.8,8.21-.83,15.62-8.54,16.46-8.24.91-10.53-6.57-11.27-14.52-2.92-31.21-14.51-58.32-39.83-78.4C227.43,91.21,219.92,87,225.62,77.5Z" transform="translate(-0.01 0)"/><path class="cls-1" d="M35.47,176.34c2.7-36.36,16.3-67.58,43.58-92.4,5.13-4.67,11.56-6.64,16.6-1.93,5.62,5.27,2.26,11.08-2.71,15.79C70,119.51,57.08,145.91,55.61,177.55c-.32,6.69-4.23,11.78-10.12,11.62C38.85,189,35.15,183.39,35.47,176.34Z" transform="translate(-0.01 0)"/><path class="cls-1" d="M165.35,307c-13.81.46-26.82-.18-39.42-5.33-7.07-2.88-8.16-7.7-6.22-13.59,2-6.07,6.58-6.82,12.77-5.18,21.57,5.72,43.34,6.05,64.85-.28,7.29-2.14,11.23,1,13.36,6.87,2.23,6.16-1.6,9.62-7.08,12C191.16,306.8,178.09,307.64,165.35,307Z" transform="translate(-0.01 0)"/><path class="cls-2" d="M273.44,320h-31.8c-21.68-.14-29.54-13.78-18.75-32.74,5.56-9.77,13.13-18.35,23.7-22,9.15-3.14,7.41-6.31,3.1-11.81-15.18-19.37-8.84-34.69,2.49-45.6,11.93-11.48,31.38-11.48,44.38.11,11.06,9.87,12.91,31.58,2.95,42.9-6.63,7.53-9.21,10.87,3.66,15.26,17.56,6,24.5,21.55,25.1,39.48.33,9.91-5.87,14.08-15.09,14.22-13.24.19-26.49.05-39.74.05Z" transform="translate(-0.01 0)"/><path class="cls-2" d="M87.7,269.78c16.29,8.35,23.59,22.35,21.49,39.35-1,8.16-6.63,10.35-12.87,10.43-27.34.38-54.7.76-82-.1C.62,319-3.94,304.13,3.68,287.52,8.62,276.71,16.62,268,28,265c11-2.85,7.62-6.51,3.06-12.14-10.08-12.44-10.94-27-2.63-39.58,8-12.06,21.78-16.65,37-12.32C84,206.28,93.37,228.6,84,245.38c-1.48,2.67-2.79,5.54-4.75,7.82-5.56,6.47-5.49,10.55,4,12.17,1.68.28,3,2.88,4.44,4.41-5.21,4.48-11.14,2-16.38.83-12.41-2.77-24.5-1.32-36.67.88A29.76,29.76,0,0,0,14.41,285c-4.48,6.82-7.78,14.62-3.78,22.25,3.46,6.52,11.12,3.79,17,3.89,20.25.26,40.5.37,60.75,0,12.82-.23,16.21-5.82,11.49-17.77-1.8-4.55-4.89-8.26-7.78-12.13C89.62,277.86,85.43,275,87.7,269.78Z" transform="translate(-0.01 0)"/><path class="cls-2" d="M215.53,87.44c12.09,23.82,5.59,34.69-20.79,34.69q-30.31.06-60.64,0c-26.31,0-32.71-10.74-20.83-34.72a5.78,5.78,0,0,1,2.86,3c2.1,22.86,2.1,22.87,26.47,22.87,17.17,0,34.34.11,51.51,0,16.95-.15,17.85-1.15,17.69-17.61a16.44,16.44,0,0,1,.83-5.16A5.77,5.77,0,0,1,215.53,87.44Z" transform="translate(-0.01 0)"/><path class="cls-2" d="M145,54q19.41,9.17,38.79,0l-5.08,8.6c7.08,1.72,14.65,1.86,20.18,7a2.29,2.29,0,0,1-.27,3.23,2,2,0,0,1-.46.3,185.09,185.09,0,0,0-67.52,0,2.29,2.29,0,0,1-1-3.09h0a2.57,2.57,0,0,1,.29-.44c5.54-4.62,12.25-6,20-6.24Z" transform="translate(-0.01 0)"/><path class="cls-2" d="M198.45,72.28c.16-.92.31-1.84.47-2.76,9.33,2.49,14.62,8.69,16.61,17.92l-1.34,1C205.8,86.13,198.91,82.28,198.45,72.28Z" transform="translate(-0.01 0)"/><path class="cls-2" d="M225.62,77.5C224,85.36,229,90.59,233.2,96.11,221.52,92,219,85.7,225.62,77.5Z" transform="translate(-0.01 0)"/><path class="cls-2" d="M129.94,69.52c0,.89.05,1.79.08,2.68-3.45,7-8,13-15.38,16.27l-1.37-1.07C115.37,78.25,120.62,72,129.94,69.52Z" transform="translate(-0.01 0)"/><path class="cls-2" d="M177.47,30.78c-2.88,6.5-4.82,12.85-13.35,12.53-8.32-.31-11.78-6.18-11.78-12.68,0-6.68,5.46-10.77,12.39-10.74C171.88,19.93,175,25.13,177.47,30.78Z" transform="translate(-0.01 0)"/><path class="cls-1" d="M274.56,315c-13.69,0-27.39-.17-41.08.08-8.08.14-10.78-3.62-10.82-11.27-.1-16.36,15.75-33.68,32-36.79,13.78-2.63,27.07-1.46,40.6.3,17.82,2.31,33.24,25.64,28.34,42.6-1.56,5.42-5.39,5-9.28,5C301.07,315.05,287.8,315,274.56,315Z" transform="translate(-0.01 0)"/><path class="cls-1" d="M273,204c18-.06,29.45,10.65,29.49,27.56,0,15.63-12.24,27.88-28.1,28-16.73.17-30.69-13.32-30.28-29.25C244.49,216.44,258.11,204,273,204Z" transform="translate(-0.01 0)"/><path class="cls-1" d="M87.7,269.78c5.37,8.44,14,14.49,17.24,24.55C109.66,309,105.75,315,90.49,315c-24.73.06-49.46-.29-74.18.16-8.71.15-11.43-2.86-11.39-11.41.1-20,13.21-33.25,33.39-36.93,17.12-3.12,33.09,0,49.44,2.94Z" transform="translate(-0.01 0)"/><path class="cls-1" d="M55.62,204c15.61,0,29.49,13.08,29.13,27.42-.38,15.61-13.9,28.29-30,28.17-15.83-.11-28.31-12.35-28.34-27.8C26.32,214.75,37.69,203.94,55.62,204Z" transform="translate(-0.01 0)"/><path class="cls-1" d="M114.62,88.47c4.27-6.23,8.65-12.35,15.38-16.27,22.82-8.63,45.64-9,68.43.08l15.74,16.18c2.74,28.3,2.74,28.3-26.74,28.3-18.86,0-37.72,0-56.58,0-19.08-.07-20.39-1.74-17-20.49A72.77,72.77,0,0,0,114.62,88.47Z" transform="translate(-0.01 0)"/><path class="cls-2" d="M296.8,286.26l5.49,5.07c2.77,8-3.53,7.43-7.88,7.58-12.73.44-25.48.29-38.22.08-4.16-.06-9.88.85-10.16-5.31-.21-4.77,3.86-7.66,8.35-8.82C268.62,281.21,282.8,280,296.8,286.26Z" transform="translate(-0.01 0)"/><path class="cls-2" d="M296.8,286.26c-13-1.4-25.84-4.44-39-.49-4.48,1.35-9.69,3-9.47,7.45.27,5.51,6.22,3.08,9.67,3.18,11.37.31,22.77.22,34.15.05,4.05-.06,9.3,1.54,10.11-5.12,6.09,5.66,4.07,9.71-3.26,10-17.08.62-34.19.23-51.29.19-2.75,0-5.23-.65-5.86-4-.75-3.95,1.46-6.53,4-9.13C255.9,277.92,284,276.7,296.8,286.26Z" transform="translate(-0.01 0)"/><path class="cls-2" d="M284.71,231.21c-.27,6.81-3.09,12.06-10.49,12.3-7.89.27-11.55-4.63-12-12.27-.43-8,4.51-11.07,11.2-11.21C280.4,219.88,285,223.41,284.71,231.21Z" transform="translate(-0.01 0)"/><path class="cls-2" d="M25.94,290.86l5.61-5.18a70.13,70.13,0,0,1,39.07-1.79c3.41.84,7,1.28,9.44,4.21,1.71,2,3.79,3.9,2.81,6.85s-3.54,3.81-6.27,3.89c-15,.41-30,.57-45-.09C26.94,298.55,24.17,296.13,25.94,290.86Z" transform="translate(-0.01 0)"/><path class="cls-2" d="M245,290.52c.87,3.16,2.41,5.55,6.18,5.56,14,0,28,.1,42,0,2.44,0,5.92.79,6.51-2.6s-2.5-5.92-5.2-6.63c-9.67-2.54-19.48-5.21-29.65-2.81-4.7,1.1-9.36,2.2-14.23,1.26,15.89-9,32-7.56,47.82-.22,4.48,2.09,9.41,6.39,7.38,12.61-1.84,5.66-7.51,3.34-11.55,3.41-14.14.25-28.28.07-42.41.09C243.86,301.24,239.62,298.94,245,290.52Z" transform="translate(-0.01 0)"/><path class="cls-2" d="M66.62,231.41c-.56,7.42-4.12,12.51-12.09,12.1-7.32-.37-10.19-5.51-10.36-12.45-.19-7.79,4.42-11.23,11.33-11C62.18,220.22,67.19,223.4,66.62,231.41Z" transform="translate(-0.01 0)"/><path class="cls-2" d="M164.67,100.78c-8.37,0-16.74-.1-25.11,0-6.44.11-8.3-3-5-8,6.09-9.33,15.72-11.84,26.3-12.15,12.65-.36,25,.32,33.19,11.72,3,4.23,3,8.48-4.28,8.42C181.41,100.72,173,100.77,164.67,100.78Z" transform="translate(-0.01 0)"/></svg>