<svg id="Layer_1" data-name="Layer 1" xmlns="http://www.w3.org/2000/svg" viewBox="0 0 328.28 319.99"><defs><style>.cls-1{fill:#fff;}.cls-2{fill:#1f2b3d;}.cls-3{fill:#212b40;}</style></defs><path class="cls-1" d="M206.41,295.85c-14.41-12.24-16.17-31.17-4-43.58,13.54-13.87,33.33-13.87,46.88,0,12.12,12.41,10.37,31.35-4,43.59C228.26,307.23,223.38,307.23,206.41,295.85Z" transform="translate(-61.38 -241.86)"/><path class="cls-1" d="M287,319.37c5.26-4.51,10.28-3.5,15.54.24,25.06,17.84,40.4,42.11,47.74,71.53,1.91,7.62,2.25,15.62,3.94,23.3,1.8,8.21-.83,15.62-8.54,16.46-8.24.91-10.53-6.57-11.27-14.52-2.92-31.21-14.51-58.32-39.83-78.4C288.81,333.08,281.3,328.88,287,319.37Z" transform="translate(-61.38 -241.86)"/><path class="cls-1" d="M96.85,418.21c2.7-36.36,16.3-67.58,43.58-92.4,5.13-4.67,11.56-6.64,16.6-1.93,5.62,5.27,2.26,11.08-2.71,15.79-22.94,21.71-35.86,48.11-37.33,79.75-.32,6.69-4.23,11.78-10.12,11.62C100.23,430.86,96.53,425.26,96.85,418.21Z" transform="translate(-61.38 -241.86)"/><path class="cls-1" d="M226.73,548.87c-13.81.46-26.82-.18-39.42-5.33-7.07-2.88-8.16-7.7-6.22-13.59,2-6.07,6.58-6.82,12.77-5.18,21.57,5.72,43.34,6.05,64.85-.28,7.29-2.14,11.23,1,13.36,6.87,2.23,6.16-1.6,9.62-7.08,12C252.54,548.67,239.47,549.51,226.73,548.87Z" transform="translate(-61.38 -241.86)"/><path class="cls-2" d="M334.82,561.83c-10.6,0-21.2,0-31.8,0-21.68-.14-29.54-13.78-18.75-32.74,5.56-9.77,13.13-18.35,23.7-22,9.15-3.14,7.41-6.31,3.1-11.81-15.18-19.37-8.84-34.69,2.49-45.6,11.93-11.48,31.38-11.48,44.38.11,11.06,9.87,12.91,31.58,2.95,42.9-6.63,7.53-9.21,10.87,3.66,15.26,17.56,6,24.5,21.55,25.1,39.48.33,9.91-5.87,14.08-15.09,14.22-13.24.19-26.49.05-39.74.05Z" transform="translate(-61.38 -241.86)"/><path class="cls-2" d="M149.08,511.65C165.37,520,172.67,534,170.57,551c-1,8.16-6.63,10.35-12.87,10.43-27.34.38-54.7.76-82-.1C62,560.89,57.44,546,65.06,529.39,70,518.58,78,509.86,89.4,506.91c11-2.85,7.62-6.51,3.06-12.14-10.08-12.44-10.94-27-2.63-39.58,8-12.06,21.78-16.65,37-12.32,18.57,5.28,27.92,27.6,18.57,44.38-1.48,2.67-2.79,5.54-4.75,7.82-5.56,6.47-5.49,10.55,4,12.17,1.68.28,3,2.88,4.44,4.41-5.21,4.48-11.14,2-16.38.83-12.41-2.77-24.5-1.32-36.67.88a29.74,29.74,0,0,0-20.25,13.5c-4.48,6.82-7.78,14.62-3.78,22.25C75.47,555.63,83.13,552.9,89,553c20.25.26,40.5.37,60.75,0,12.82-.23,16.21-5.82,11.49-17.77-1.8-4.55-4.89-8.26-7.78-12.13C151,519.73,146.81,516.85,149.08,511.65Z" transform="translate(-61.38 -241.86)"/><path class="cls-2" d="M276.91,329.31C289,353.13,282.5,364,256.12,364q-30.31.06-60.64,0c-26.31,0-32.71-10.74-20.83-34.72a5.72,5.72,0,0,1,2.86,3c2.1,22.86,2.1,22.87,26.47,22.87,17.17,0,34.34.11,51.51,0,16.95-.14,17.85-1.13,17.73-17.61a16.49,16.49,0,0,1,.83-5.16A5.78,5.78,0,0,1,276.91,329.31Z" transform="translate(-61.38 -241.86)"/><path class="cls-2" d="M206.41,295.85q19.41,9.16,38.79,0l-5.08,8.6c7.08,1.72,14.65,1.86,20.18,6.95a2.31,2.31,0,0,1-.73,3.53,184.87,184.87,0,0,0-67.52,0,2.31,2.31,0,0,1-.73-3.54c5.54-4.62,12.25-5.95,20.05-6.24Z" transform="translate(-61.38 -241.86)"/><path class="cls-2" d="M259.83,314.15c.16-.92.31-1.84.47-2.76,9.33,2.49,14.62,8.69,16.61,17.92l-1.34,1C267.13,328,260.29,324.15,259.83,314.15Z" transform="translate(-61.38 -241.86)"/><path class="cls-2" d="M287,319.37c-1.6,7.86,3.35,13.09,7.58,18.61C282.9,333.88,280.33,327.57,287,319.37Z" transform="translate(-61.38 -241.86)"/><path class="cls-2" d="M191.32,311.39c0,.89.05,1.79.08,2.68-3.45,7-8,13-15.38,16.27l-1.37-1.07C176.75,320.12,182,313.87,191.32,311.39Z" transform="translate(-61.38 -241.86)"/><path class="cls-2" d="M238.85,272.65c-2.88,6.5-4.82,12.85-13.35,12.53-8.31-.31-11.78-6.19-11.78-12.68,0-6.68,5.46-10.77,12.39-10.74C233.26,261.8,236.42,267,238.85,272.65Z" transform="translate(-61.38 -241.86)"/><path class="cls-1" d="M335.94,556.87c-13.69,0-27.39-.17-41.08.08-8.08.14-10.78-3.62-10.82-11.27-.1-16.36,15.75-33.68,32-36.79,13.78-2.63,27.07-1.46,40.6.3,17.82,2.31,33.24,25.64,28.34,42.6-1.56,5.42-5.39,5-9.28,5.05C362.45,556.92,349.2,556.87,335.94,556.87Z" transform="translate(-61.38 -241.86)"/><path class="cls-1" d="M334.4,445.84c18-.06,29.45,10.65,29.49,27.56,0,15.63-12.24,27.88-28.1,28-16.73.17-30.69-13.32-30.28-29.25C305.87,458.31,319.49,445.9,334.4,445.84Z" transform="translate(-61.38 -241.86)"/><path class="cls-1" d="M149.08,511.65c5.37,8.44,14,14.49,17.24,24.55,4.72,14.69.81,20.65-14.45,20.69-24.73.06-49.46-.29-74.18.16-8.71.15-11.43-2.86-11.39-11.41.1-20,13.21-33.25,33.39-36.93,17.12-3.12,33.09,0,49.44,2.94Z" transform="translate(-61.38 -241.86)"/><path class="cls-1" d="M117,445.84c15.61,0,29.49,13.08,29.13,27.42-.38,15.61-13.9,28.29-30,28.17-15.83-.11-28.31-12.35-28.34-27.8C87.7,456.62,99.07,445.81,117,445.84Z" transform="translate(-61.38 -241.86)"/><path class="cls-1" d="M176,330.34c4.27-6.23,8.65-12.35,15.38-16.27,22.82-8.63,45.64-9,68.43.08l15.74,16.18c2.74,28.3,2.74,28.3-26.74,28.3-18.86,0-37.72.05-56.58,0-19.08-.07-20.39-1.74-16.95-20.49C175.77,335.58,175.79,332.94,176,330.34Z" transform="translate(-61.38 -241.86)"/><path class="cls-3" d="M358.14,528.13l5.49,5.07c2.77,8-3.53,7.43-7.88,7.58-12.73.44-25.48.29-38.22.08-4.16-.06-9.88.85-10.16-5.31-.21-4.77,3.86-7.66,8.35-8.82C330,523.08,344.19,521.84,358.14,528.13Z" transform="translate(-61.38 -241.86)"/><path class="cls-3" d="M358.14,528.13c-13-1.4-25.84-4.44-39-.49-4.48,1.35-9.69,3-9.47,7.45.27,5.51,6.22,3.08,9.67,3.18,11.37.31,22.77.22,34.15.05,4.05-.06,9.3,1.54,10.11-5.12,6.09,5.66,4.07,9.71-3.26,10-17.08.62-34.19.23-51.29.19-2.75,0-5.23-.65-5.86-4-.75-3.95,1.46-6.53,4-9.13C317.28,519.79,345.35,518.57,358.14,528.13Z" transform="translate(-61.38 -241.86)"/><path class="cls-3" d="M346.09,473.08c-.27,6.81-3.09,12.06-10.49,12.3-7.89.27-11.55-4.63-12-12.27-.43-7.95,4.51-11.07,11.2-11.21C341.78,461.75,346.39,465.28,346.09,473.08Z" transform="translate(-61.38 -241.86)"/><path class="cls-3" d="M87.32,532.73l5.61-5.18A70.09,70.09,0,0,1,132,525.76c3.41.84,6.95,1.28,9.44,4.21,1.71,2,3.79,3.9,2.81,6.85s-3.54,3.81-6.27,3.89c-15,.41-30,.57-45-.09C88.32,540.42,85.55,538,87.32,532.73Z" transform="translate(-61.38 -241.86)"/><path class="cls-3" d="M87.32,532.73c.87,3.16,2.41,5.55,6.18,5.56,14,0,28,.1,42,0,2.44,0,5.92.79,6.51-2.6s-2.5-5.92-5.2-6.63c-9.67-2.54-19.48-5.21-29.65-2.81-4.7,1.1-9.36,2.2-14.23,1.26,15.89-9,32.05-7.56,47.82-.22,4.48,2.09,9.41,6.39,7.38,12.61-1.84,5.66-7.51,3.34-11.55,3.41-14.14.25-28.28.07-42.41.09C86.16,543.45,81.92,541.15,87.32,532.73Z" transform="translate(-61.38 -241.86)"/><path class="cls-3" d="M128,473.28c-.56,7.42-4.12,12.51-12.09,12.1-7.32-.37-10.19-5.51-10.36-12.45-.19-7.79,4.42-11.23,11.33-11C123.56,462.09,128.57,465.27,128,473.28Z" transform="translate(-61.38 -241.86)"/><path class="cls-3" d="M226.05,342.65c-8.37,0-16.74-.1-25.11,0-6.44.11-8.3-2.95-5-8,6.09-9.33,15.72-11.84,26.3-12.15,12.65-.36,25,.32,33.19,11.72,3,4.23,3,8.48-4.28,8.42C242.79,342.59,234.42,342.64,226.05,342.65Z" transform="translate(-61.38 -241.86)"/></svg>